<?xml version="1.0" encoding="UTF-8" standalone="no" ?>
<!DOCTYPE svg PUBLIC "-//W3C//DTD SVG 1.1//EN" "http://www.w3.org/Graphics/SVG/1.1/DTD/svg11.dtd">
<svg xmlns="http://www.w3.org/2000/svg" xmlns:xlink="http://www.w3.org/1999/xlink" version="1.1" width="1920" height="852" viewBox="0 0 1920 852" xml:space="preserve">
<desc>Created with Fabric.js 4.6.0</desc>
<defs>
</defs>
<g transform="matrix(1 0 0 1 945.19 379.79)" id="3s93zv_zv4_X5rv3Qim_s"  >
<path style="stroke: rgb(0,0,0); stroke-width: 0; stroke-dasharray: none; stroke-linecap: butt; stroke-dashoffset: 0; stroke-linejoin: miter; stroke-miterlimit: 4; fill: rgb(36,37,130); fill-rule: nonzero; opacity: 1;" vector-effect="non-scaling-stroke"  transform=" translate(0, 0)" d="M -958.44156 242.33766 L -941.88473 247.67857 L -941.88473 247.67857 C -921.81051 254.15412 -905.76062 269.39135 -898.25168 289.10234 L -897.66234 290.64935 L -894.67507 299.61116000000004 L -894.67507 299.61116000000004 C -889.9442300000001 313.80367000000007 -876.66246 323.37663000000003 -861.70225 323.37663000000003 L -857.14286 323.37663000000003 L -853.36499 321.37658000000005 L -853.36499 321.37658000000005 C -839.79301 314.19141 -823.1485200000001 316.47644 -812.01499 327.05330000000004 L -803.01654 335.60183000000006 L -803.01654 335.60183000000006 C -800.66861 337.8323700000001 -798.61199 340.3507000000001 -796.8955699999999 343.0969600000001 L -784.0811799999999 363.5999800000001 L -784.0811799999999 363.5999800000001 C -779.1186199999999 371.54008000000005 -770.4157299999999 376.3636400000001 -761.0523799999999 376.3636400000001 L -747.8654699999998 376.3636400000001 L -747.8654699999998 376.3636400000001 C -742.9510699999998 376.3636400000001 -738.1921899999999 378.0865900000001 -734.4168499999998 381.2327100000001 L -732.4879499999998 382.8401300000001 L -732.4879499999998 382.8401300000001 C -725.5625999999999 388.6112500000001 -721.5584399999998 397.1603100000001 -721.5584399999998 406.1750900000001 L -721.5584399999998 414.9837500000001 L -721.5584399999998 414.9837500000001 C -721.5584399999998 420.9233900000001 -718.2025999999998 426.3532500000001 -712.8900299999998 429.00954000000013 L -693.5064999999998 438.70131000000015 L -663.5125699999999 448.96239000000014 L -663.5125699999999 448.96239000000014 C -644.1341899999999 455.59184000000016 -623.8832099999998 459.32393000000013 -603.4146599999999 460.03795000000014 L -374.6104899999999 468.01949000000013 L -374.6104899999999 468.01949000000013 C -280.0338499999999 471.31868000000014 -185.41020999999992 462.98202000000015 -92.86736999999994 443.1970000000001 L -46.65858999999994 433.3178800000001 L -46.65858999999994 433.3178800000001 C -21.53555999999994 427.9467500000001 -0.995509999999939 409.9305900000001 7.604860000000059 385.72214000000014 L 7.604860000000059 385.72214000000014 L 7.604860000000059 385.72214000000014 C 12.347940000000058 372.3712600000001 19.946770000000058 360.2159600000001 29.87126000000006 350.10422000000017 L 29.87126000000006 350.10422000000017 L 29.87126000000006 350.10422000000017 C 47.05080000000006 332.60053000000016 68.57282000000006 319.9760200000002 92.23444000000006 313.5228500000002 L 92.52386000000007 313.44392000000016 L 92.52386000000007 313.44392000000016 C 102.35230000000007 310.7634400000002 112.71706000000007 310.7470000000002 122.55396000000007 313.39630000000017 L 135.46787000000006 316.87431000000015 L 135.46787000000006 316.87431000000015 C 157.25156000000007 322.7411500000002 180.51739000000006 318.56246000000016 198.89799000000005 305.48184000000015 L 214.81520000000006 294.15430000000015 L 214.81520000000006 294.15430000000015 C 218.05653000000007 291.84759000000014 220.73392000000007 288.83738000000017 222.64684000000005 285.3491300000002 L 243.01899000000006 248.1999200000002 L 243.01899000000006 248.1999200000002 C 245.14721000000006 244.3190400000002 247.90896000000006 240.82105000000018 251.19014000000007 237.8504600000002 C 257.95294000000007 231.7277900000002 260.6492400000001 229.2760400000002 272.72728000000006 220.5195000000002 C 287.72245000000004 209.64805000000018 305.00146000000007 218.8244000000002 307.83290000000005 220.5195000000002 C 312.67399000000006 223.4177200000002 331.61994000000004 236.6811400000002 335.88485000000003 232.9870300000002 C 335.88485000000003 232.9870300000002 338.03607000000005 232.9870300000002 339.09562000000005 232.9870300000002 L 339.09562000000005 232.9870300000002 C 352.18777000000006 232.9870300000002 364.44681 226.5638700000002 371.89900000000006 215.7996000000002 L 374.02599000000004 212.7272800000002 C 374.02599000000004 212.7272800000002 372.85716 219.7402700000002 374.02599000000004 186.23377000000022 C 374.60842 169.53732000000022 381.66514 163.88589000000022 391.21764 162.64157000000023 L 391.21764 162.64157000000023 C 396.68835 161.92895000000024 401.15794 157.92602000000022 402.46707000000004 152.56667000000022 C 403.7762 147.2073100000002 401.65544000000006 141.59456000000023 397.12936 138.4400200000002 L 378.06655 125.15382000000021 L 378.06655 125.15382000000021 C 375.45963 123.3368700000002 373.59079 120.64523000000021 372.79943000000003 117.56772000000021 L 366.05547 91.34119000000021 L 366.05547 91.34119000000021 C 362.3378 76.88360000000021 367.02090000000004 61.561180000000206 378.18587 51.65227000000021 L 398.01768000000004 34.05154000000021 L 398.01768000000004 34.05154000000021 C 401.69554000000005 30.78744000000021 404.42663000000005 26.593230000000208 405.92413000000005 21.90937000000021 L 415.7189000000001 -8.726489999999792 L 415.7189000000001 -8.726489999999792 C 417.00675000000007 -12.754599999999792 417.6623600000001 -16.95801999999979 417.6623600000001 -21.18699999999979 L 417.6623600000001 -70.00209999999979 L 417.6623600000001 -70.00209999999979 C 417.6623600000001 -88.5777899999998 432.72093000000007 -103.6363499999998 451.2966100000001 -103.6363499999998 L 484.3262100000001 -103.6363499999998 L 484.3262100000001 -103.6363499999998 C 500.04459000000014 -103.6363499999998 513.6886400000001 -114.4714699999998 517.2490700000001 -129.78128999999979 L 518.4941900000001 -135.13529999999977 L 518.4941900000001 -135.13529999999977 C 523.3305000000001 -155.93142999999978 541.8639300000001 -170.64933999999977 563.2150200000001 -170.64933999999977 L 565.7143100000001 -170.64933999999977 L 593.7662600000001 -170.64933999999977 L 603.3759400000001 -170.64933999999977 L 603.3759400000001 -170.64933999999977 C 616.2456000000001 -170.64933999999977 628.6532000000001 -175.44620999999978 638.1759800000001 -184.10326999999978 L 638.1759800000001 -184.10326999999978 L 638.1759800000001 -184.10326999999978 C 650.8208000000001 -195.59856999999977 659.3704000000001 -210.9051399999998 662.5272500000001 -227.7000099999998 C 664.5664600000001 -238.5488999999998 668.7066900000001 -260.5754399999998 668.7066900000001 -260.5754399999998 C 669.2238300000001 -258.8448899999998 672.1239400000001 -271.11513999999977 673.0552400000001 -276.4740799999998 L 673.0552400000001 -276.4740799999998 C 676.5788500000001 -296.74986999999976 685.8285300000001 -315.5947299999998 699.7128900000001 -330.7851099999998 C 705.2094300000001 -336.7986799999998 714.5860200000001 -345.6042299999998 718.3704400000001 -346.95298999999983 C 718.3704400000001 -346.95298999999983 738.6144500000001 -358.9422799999998 748.5853800000001 -364.8474499999998 L 748.5853800000001 -364.8474499999998 C 749.2668000000001 -365.25100999999984 749.9892900000001 -365.5808099999998 750.7406000000001 -365.8312499999998 L 767.1937500000001 -371.31562999999977 L 767.1937500000001 -371.31562999999977 C 767.9327500000002 -371.5619599999998 768.6200800000001 -371.94222999999977 769.2213900000002 -372.4374299999998 L 794.5603800000001 -393.3048399999998 L 794.5603800000001 -393.3048399999998 C 794.7231900000002 -393.43891999999977 794.8720800000001 -393.5890599999998 795.0047900000001 -393.75299999999976 L 821.2987300000001 -426.23374999999976 L 850.9091200000001 -457.4025799999998 L 864.7048900000001 -478.09622999999976 L 864.7048900000001 -478.09622999999976 C 865.82234 -479.7723999999998 867.70356 -480.7791999999998 869.7180700000001 -480.7791999999998 L 882.0779500000001 -480.7791999999998 L 894.5454800000001 -480.7791999999998 L 905.4545700000001 -480.7791999999998 L 917.9221000000001 -480.7791999999998 L 925.7143100000001 -480.7791999999998 L 941.2987300000001 -480.7791999999998 L 974.0260000000001 -480.7791999999998 L 974.0260000000001 472.9870300000002 L -974.02595 480.7792400000002 z" stroke-linecap="round" />
</g>
</svg>