<svg version="1.2" xmlns="http://www.w3.org/2000/svg" viewBox="0 0 446 443" width="446" height="443">
	<title>logo-color-svg</title>
	<style>
		.s0 { fill: #242582;stroke: #000000;stroke-width: .4 } 
		.s1 { fill: #242582 } 
		.s2 { fill: #242582;stroke: #000000;stroke-width: 1.8 } 
	</style>
	<g id="Layer">
		<g id="Layer">
			<g id="tight-bounds">
				<g id="Layer">
					<g id="Layer">
						<g id="Layer">
						</g>
					</g>
					<g id="Layer">
						<g id="Layer">
							<g id="Layer">
								<g id="Layer">
									<g id="Layer">
										<g id="Layer">
											<g id="Layer">
												<path id="o-0" class="s0" d="m7.5 235.2c0-1 0.8-1.8 1.8-1.8h428.6c0.9 0 1.7 0.8 1.7 1.8v2.8c0 1-0.8 1.8-1.7 1.8h-428.6c-1 0-1.8-0.8-1.8-1.8z"/>
											</g>
											<g id="Layer">
												<g id="Layer">
													<g id="Layer">
														<g id="Layer">
															<g id="Layer">
																<g id="Layer">
																	<g id="Layer">
																		<g id="Layer">
																			<path id="text-0" fill-rule="evenodd" class="s1" d="m30.9 326.8h-13.8l-8.5-70.4h13.2l4.2 41 5.3-40.9h10.4l5.5 40.7 4.3-40.8h13.1l-8.5 70.4h-13.6l-6-42.5zm72.8 0h-31.9v-70.4h31.7v10.6h-16.1v17.5h12.3v10.8h-12.3v21h16.3zm61 0h-31.7v-70.4h15.5v59.9h16.2zm38 0h-31.9v-70.4h31.7v10.6h-16.1v17.5h12.3v10.7h-12.3v21.1h16.3zm18.3 0h-14.7l13.3-70.4h17.8l13.1 70.4h-14.3l-2.4-14.9h-10.3zm7.5-51.6l-3.7 27.4h7.5zm43.9 51.7h-15.6v-70.4h19.4q7.2 0 12.4 1.5 5.2 1.6 8.1 5.6 2.9 4.1 2.9 11.5 0 4.3-0.7 7.7-0.7 3.4-2.5 5.9-1.9 2.4-5.4 4.1l9.7 34.1h-16.1l-7.8-31.6h-4.4zm0-59.9v19.4h4.4q3.3 0 5.1-1.2 1.8-1.1 2.5-3.3 0.8-2.3 0.8-5.4 0-4.5-1.7-7-1.6-2.5-6.1-2.5zm49.6 59.9h-13.3v-70.4h11l14.4 33.9v-33.9h12.9v70.4h-10.5l-14.5-36.5zm73.5 0h-15.6v-70.4h15.6zm32.5 0h-15.7v-58.8h-10.6v-11.5h36.8v11.5h-10.5z"/>
																		</g>
																	</g>
																</g>
															</g>
														</g>
													</g>
												</g>
											</g>
											<g id="Layer">
												<g id="Layer">
													<g id="Layer">
														<g id="icon-0">
															<path id="Layer" class="s1" d="m228.4 208.3c-1.4 0.7-3.2 1.4-5 1.4-1.8 0-3.6-0.3-5-1.4l-36.6-17v15.6c0 5.7 4.6 9.9 10 9.9h62.9c5.7 0 9.9-4.6 9.9-9.9v-17.4z"/>
															<path id="Layer" class="s1" d="m286.3 148.3l-0.3-0.3c-0.4-0.4-1.1-0.4-1.5-0.7l-56.1-26.3c-1.4-0.7-3.2-1.4-5-1.4-1.8 0-3.6 0.3-5 1.4l-57.9 30.2c-3.6 2.1-5.7 5.6-5.7 10.3 0 4.6 2.1 8.1 5.7 10.2l0.3 0.4c0.4 0.4 1.1 0.4 1.5 0.7l56.1 26.3c1.4 0.7 3.2 1 5 1 1.8 0 3.6-0.3 5-1.4l46.5-24.1v41.9h7.5v-45.8l4.3-2.1c3.5-2.2 5.6-5.7 5.6-10.3 0-4.7-2.4-8.2-6-10z"/>
														</g>
													</g>
												</g>
											</g>
											<g id="Layer">
												<path id="Layer" class="s1" d="m306.4 208.7h50v6.4h-50z"/>
												<path id="Layer" class="s1" d="m90.7 208.7h50v6.4h-50z"/>
											</g>
										</g>
									</g>
								</g>
							</g>
							<g id="Layer">
								<path id="Layer" fill-rule="evenodd" class="s2" d="m44.2 102.9c19.7-29.4 46.4-53.5 77.7-70.1 31.3-16.7 66.2-25.4 101.7-25.4 35.4 0 70.3 8.7 101.6 25.4 31.3 16.6 58 40.7 77.8 70.1h-6.4c-19.2-28.1-45.1-51-75.2-66.9-30.2-15.9-63.7-24.2-97.8-24.2-34.1 0-67.7 8.3-97.8 24.2-30.2 15.9-56 38.8-75.3 66.9zm6.4 240.5c19.2 28.1 45.1 51.1 75.2 67 30.2 15.9 63.7 24.2 97.8 24.2 34.1 0 67.7-8.3 97.8-24.2 30.2-15.9 56-38.9 75.3-67h6.3c-19.7 29.4-46.4 53.5-77.7 70.2-31.3 16.6-66.2 25.4-101.7 25.4-35.4 0-70.3-8.8-101.6-25.4-31.3-16.7-58-40.8-77.8-70.2z"/>
							</g>
						</g>
					</g>
				</g>
			</g>
		</g>
	</g>
</svg>